<?xml version="1.0" encoding="UTF-8" standalone="no"?>
<!-- Created with Inkscape (http://www.inkscape.org/) -->

<svg
   width="137.4702mm"
   height="90.230019mm"
   viewBox="0 0 137.4702 90.230019"
   version="1.1"
   id="svg1"
   xmlns:inkscape="http://www.inkscape.org/namespaces/inkscape"
   xmlns:sodipodi="http://sodipodi.sourceforge.net/DTD/sodipodi-0.dtd"
   xmlns="http://www.w3.org/2000/svg"
   xmlns:svg="http://www.w3.org/2000/svg">
  <sodipodi:namedview
     id="namedview1"
     pagecolor="#ffffff"
     bordercolor="#000000"
     borderopacity="0.25"
     inkscape:showpageshadow="2"
     inkscape:pageopacity="0.0"
     inkscape:pagecheckerboard="0"
     inkscape:deskcolor="#d1d1d1"
     inkscape:document-units="mm" />
  <defs
     id="defs1" />
  <g
     inkscape:label="Layer 1"
     inkscape:groupmode="layer"
     id="layer1"
     transform="translate(-24.07708,-42.862499)">
    <path
       id="path2"
       d="m 133.44329,132.09044 c 3.1288,-1.6263 5.30084,-4.78719 5.30084,-8.36083 0,-2.84692 -1.4492,-5.29872 -3.52636,-7.09436 4.21674,-0.0494 8.43386,-0.10583 12.6492,-0.21167 2.31986,-0.0564 4.71945,-0.0141 6.78286,-1.2453 3.32388,-1.98967 4.33633,-6.43114 3.69498,-10.02947 -0.34184,-1.91912 -1.32715,-3.85587 -2.76259,-5.284616 2.32727,-0.670276 4.21746,-2.183693 5.19078,-4.670776 1.23825,-3.164417 1.03433,-7.313084 -0.92358,-10.14236 -2.27224,-3.28789 -5.83319,-3.28789 -9.44174,-3.450167 -1.86621,-0.08114 -3.73205,-0.165807 -5.59789,-0.250473 2.062,-2.529417 2.30081,-6.44525 1.62771,-9.63436 -0.94755,-4.487334 -4.74485,-6.134807 -8.99406,-6.194777 -4.20687,-0.05997 -8.41586,-0.05645 -12.62308,-0.09525 -7.03969,-0.06703 -14.08078,-0.13053 -21.12116,-0.22578 2.61972,-1.668637 3.97439,-5.04472 3.81423,-8.195026 -0.0995,-1.961444 -0.8174,-3.880557 -2.3876,-5.125861 -1.73286,-1.374423 -3.85199,-1.172987 -5.879039,-1.702154 -4.443253,-1.160285 -8.634597,-3.31611 -12.761753,-5.28461 -1.956488,-0.933098 -3.922527,-1.899357 -6.124919,-2.016477 -2.111375,-0.112538 -4.222406,0.494241 -6.253348,1.005062 -9.712325,2.441929 -19.653593,5.133623 -28.152777,10.587566 -4.60584,2.95628 -9.029753,6.32178 -12.982099,10.110613 -3.723455,3.573637 -7.018364,7.838721 -7.916809,13.045721 -0.377481,2.187223 -0.349092,4.385026 -0.258128,6.593416 0.111231,3.263194 -0.210687,6.561667 -0.367241,9.821333 -0.248894,5.178777 -0.428308,10.364606 -0.320834,15.550446 0.08768,4.23333 -0.01773,8.79827 2.006441,12.64002 1.557893,2.95981 4.193487,5.21759 7.131897,6.74159 7.392617,3.83469 15.769431,3.51014 23.840492,3.60891 12.202954,0.14817 24.407283,0.22578 36.610925,0.30339 10.746682,0.067 21.493352,0.127 32.240382,0.17639 2.61302,0.0106 5.09833,0.28222 7.50427,-0.97014 z M 73.525746,64.410031 c -0.0061,0 -0.0127,0 -0.01826,0 0,0 -0.0032,0 -0.0042,0 0.213783,-0.05645 0.06913,-0.01765 0.02249,0 z m 52.149744,66.533889 c -10.04853,-0.0459 -20.0974,-0.10231 -30.145936,-0.16581 -11.777133,-0.0741 -23.553896,-0.15169 -35.330341,-0.27869 -6.990979,-0.0776 -14.352587,0.39511 -21.152643,-1.52753 -2.984289,-0.84667 -5.953125,-2.13431 -8.281617,-4.22628 -2.841784,-2.55411 -4.026588,-5.83142 -4.293262,-9.57086 -0.647805,-9.09108 -0.01402,-18.185693 0.374545,-27.269722 0.05249,-1.227667 0.10914,-2.45886 0.06739,-3.686527 -0.226007,-5.49275 0.702522,-10.152943 4.217617,-14.566193 3.054853,-3.838223 7.041912,-7.0485 10.963248,-9.95186 3.892312,-2.878667 8.030951,-5.66914 12.523444,-7.52475 4.760013,-1.968148 9.741244,-3.439938 14.69636,-4.826355 2.046817,-0.572558 4.100698,-1.122185 6.164792,-1.62842 2.138891,-0.52423 4.31165,-1.056571 6.490758,-0.444148 1.906058,0.535516 3.698531,1.571273 5.484283,2.414764 1.96215,0.926394 3.938059,1.823861 5.942886,2.653594 1.93675,0.800452 3.928189,1.601258 5.983816,2.042231 2.20522,0.472721 4.55332,0.246944 5.59541,2.709334 0.89746,2.120193 0.41558,4.991803 -0.87276,6.85447 -1.10172,1.594556 -2.6035,2.11314 -4.423485,2.286 -3.983223,0.38453 -8.078973,0.172863 -12.055819,-0.18697 -3.766979,-0.338667 -7.608358,-2.00025 -11.336523,-1.00189 -1.107731,0.296333 -2.240835,0.71261 -3.276944,1.2065 -0.420528,0.201083 -0.798697,0.321027 -0.94017,0.832556 -0.2032,0.733777 0.326337,1.195917 0.944033,1.37936 1.117256,0.331611 2.530846,0.215194 3.679137,0.264584 12.760325,0.532693 25.552031,0.564443 38.321191,0.709083 5.91749,0.06703 11.83534,0.127 17.75317,0.169333 1.49614,0.01058 2.99262,0.01765 4.48911,0.02822 1.81999,0.01058 3.82727,0.15522 5.3086,1.340553 1.81221,1.449917 2.08843,3.982863 2.05599,6.148917 -0.0335,2.268363 -0.61806,5.072943 -2.90867,6.092473 -13.11486,0.05292 -26.22973,0.102304 -39.3446,0.15522 -1.8683,0.0071 -3.736599,0.0141 -5.604928,0.02117 -1.361704,0.0035 -1.364536,2.120196 0,2.116667 13.183318,-0.05292 26.366968,-0.102304 39.550288,-0.155221 1.86864,-0.0071 3.73697,-0.0141 5.60527,-0.02117 1.90747,0.08467 3.8153,0.17286 5.72276,0.257526 2.72592,0.123474 6.57013,-0.381 8.94503,1.153584 2.6335,1.703916 3.18841,5.376333 2.62361,8.244416 -0.65511,3.323167 -3.01059,5.083527 -6.35529,5.16114 -17.28047,-0.05292 -34.56057,-0.102306 -51.84103,-0.155223 -2.475099,-0.0071 -4.95054,-0.0141 -7.425638,-0.02117 -1.362075,-0.0035 -1.364192,2.113134 0,2.116664 17.280468,0.0494 34.560588,0.10231 51.841058,0.15522 2.38548,0.007 4.77131,0.0141 7.15679,0.0212 3.09388,1.651 4.24323,5.42572 3.64633,8.73478 -0.66924,3.71122 -3.2431,5.13291 -6.71478,5.25638 -5.93865,0.20814 -11.88755,0.23284 -17.8294,0.29634 -11.60462,0.0494 -23.20888,0.1023 -34.813503,0.15522 -1.624541,0.007 -3.249453,0.0141 -4.873995,0.0212 -1.361704,0.007 -1.364535,2.12372 0,2.11666 11.604628,-0.0529 23.208908,-0.1023 34.813528,-0.15522 1.548,-0.007 3.09563,-0.0141 4.64362,-0.0212 0.11219,0.0529 0.23813,0.11289 0.28822,0.14112 0.49072,0.26458 0.9712,0.55033 1.42345,0.87488 1.24778,0.90312 2.34527,2.08492 2.94818,3.5172 1.5508,3.67947 -0.59656,7.60942 -4.03826,9.20397 -1.93463,0.89253 -4.32999,0.53975 -6.40432,0.5327"
       style="fill:#231f20;fill-opacity:1;fill-rule:nonzero;stroke:none;stroke-width:0.0352777" />
  </g>
</svg>
