<?xml version="1.0" encoding="UTF-8" standalone="no"?>
<!DOCTYPE svg PUBLIC "-//W3C//DTD SVG 20010904//EN"
              "http://www.w3.org/TR/2001/REC-SVG-20010904/DTD/svg10.dtd">

<svg xmlns="http://www.w3.org/2000/svg"
     width="18.55in" height="5.99in"
     viewBox="0 0 1855 599">
  <path id="Selection"
        fill="none" stroke="black" stroke-width="1"
        d="M 379.00,389.00
           C 389.70,408.35 386.55,437.88 363.00,445.90
             350.11,450.28 336.17,447.02 323.00,447.00
             323.00,447.00 313.00,447.00 313.00,447.00
             313.00,447.00 297.00,446.00 297.00,446.00
             297.00,446.00 286.00,445.09 286.00,445.09
             286.00,445.09 259.00,442.04 259.00,442.04
             259.00,442.04 250.00,442.04 250.00,442.04
             250.00,442.04 238.00,441.00 238.00,441.00
             238.00,441.00 204.00,441.00 204.00,441.00
             174.53,441.00 149.03,442.60 120.00,435.37
             108.34,432.47 97.04,429.18 87.00,422.23
             78.65,416.45 73.30,410.35 67.67,402.00
             63.94,396.45 61.56,392.35 59.34,386.00
             56.45,377.72 55.01,370.79 55.00,362.00
             55.00,362.00 55.00,348.00 55.00,348.00
             55.00,348.00 54.00,333.00 54.00,333.00
             54.00,333.00 54.00,307.00 54.00,307.00
             54.00,307.00 55.00,290.00 55.00,290.00
             55.00,290.00 55.00,270.00 55.00,270.00
             55.10,261.92 57.01,251.76 59.29,244.00
             64.08,227.73 74.74,208.79 87.01,197.09
             100.49,184.24 117.89,175.84 135.00,169.00
             157.99,159.80 175.67,154.14 200.00,149.20
             216.43,145.86 233.15,141.81 250.00,142.00
             268.24,142.22 278.62,150.42 293.00,160.00
             293.00,160.00 312.00,172.05 312.00,172.05
             316.22,174.70 329.33,184.62 333.00,184.96
             333.00,184.96 354.00,181.41 354.00,181.41
             354.00,181.41 403.00,172.40 403.00,172.40
             403.00,172.40 545.00,145.42 545.00,145.42
             556.49,143.35 577.00,138.86 588.00,140.59
             595.85,141.83 601.40,143.64 605.64,151.00
             607.61,154.43 608.46,158.16 609.20,162.00
             610.00,166.20 610.33,170.75 609.70,175.00
             606.92,193.84 587.44,197.81 572.00,201.88
             572.00,201.88 554.00,206.88 554.00,206.88
             554.00,206.88 447.00,235.12 447.00,235.12
             447.00,235.12 383.00,252.00 383.00,252.00
             383.00,252.00 410.00,257.20 410.00,257.20
             410.00,257.20 457.00,266.60 457.00,266.60
             457.00,266.60 524.00,280.20 524.00,280.20
             524.00,280.20 566.00,288.65 566.00,288.65
             585.46,293.05 610.74,293.21 616.48,317.00
             617.10,319.60 617.66,324.34 617.49,327.00
             616.35,344.53 606.65,353.80 589.00,354.00
             589.00,354.00 561.00,351.15 561.00,351.15
             561.00,351.15 508.00,344.28 508.00,344.28
             508.00,344.28 448.00,336.28 448.00,336.28
             448.00,336.28 410.00,331.00 410.00,331.00
             411.57,334.96 413.09,338.74 413.70,343.00
             415.87,358.02 409.96,374.49 397.00,382.90
             391.37,386.55 385.46,387.78 379.00,389.00 Z
           M 358.00,247.00
           C 358.00,247.00 409.00,233.88 409.00,233.88
             409.00,233.88 497.00,210.88 497.00,210.88
             497.00,210.88 556.00,195.15 556.00,195.15
             556.00,195.15 588.00,185.68 588.00,185.68
             591.81,183.89 595.47,181.76 597.56,177.96
             602.44,169.10 599.91,148.84 581.00,150.18
             581.00,150.18 525.00,160.00 525.00,160.00
             525.00,160.00 445.00,175.20 445.00,175.20
             445.00,175.20 376.00,188.39 376.00,188.39
             376.00,188.39 338.00,196.00 338.00,196.00
             338.00,196.00 358.00,247.00 358.00,247.00 Z
           M 309.00,312.00
           C 309.00,312.00 299.69,299.00 299.69,299.00
             299.69,299.00 272.15,252.00 272.15,252.00
             268.71,245.96 263.38,232.24 256.00,231.26
             250.30,230.51 243.40,235.96 239.00,239.15
             239.00,239.15 204.00,267.12 204.00,267.12
             201.02,269.39 191.02,276.85 188.00,277.86
             183.43,279.40 180.60,275.52 181.66,272.09
             182.47,269.45 185.83,267.48 188.00,266.00
             188.00,266.00 200.00,257.00 200.00,257.00
             200.00,257.00 238.00,227.00 238.00,227.00
             246.89,221.15 255.27,217.49 264.99,224.22
             272.35,229.33 277.00,239.22 281.23,247.00
             281.23,247.00 302.19,283.00 302.19,283.00
             311.51,298.22 318.14,311.31 338.00,312.82
             340.94,313.04 344.11,312.45 347.00,311.91
             349.67,311.40 352.57,310.65 354.96,309.33
             361.17,305.90 362.11,300.51 361.98,294.00
             361.80,284.83 355.62,270.94 352.32,262.00
             352.32,262.00 348.19,251.00 348.19,251.00
             348.19,251.00 334.20,215.00 334.20,215.00
             331.95,209.37 328.31,199.54 324.61,195.04
             320.07,189.51 297.62,175.97 290.00,170.58
             277.75,161.91 264.61,152.37 249.00,152.01
             236.02,151.72 211.40,157.62 198.00,160.58
             176.77,165.26 158.21,170.94 138.00,179.00
             122.08,185.35 106.45,192.87 94.17,205.17
             84.91,214.44 77.49,226.89 72.60,239.00
             65.14,257.48 65.00,278.37 65.00,298.00
             65.00,298.00 65.00,355.00 65.00,355.00
             65.10,376.30 72.15,394.31 88.00,408.91
             100.54,420.46 120.52,425.36 137.00,428.08
             163.08,432.39 222.76,431.00 252.00,431.00
             246.45,418.11 242.51,406.61 249.38,393.00
             251.62,388.56 255.15,385.03 258.00,381.00
             241.52,378.66 227.33,363.12 228.10,346.00
             228.63,334.28 235.82,322.53 245.00,315.53
             256.75,306.57 269.78,310.94 283.00,311.00
             283.00,311.00 309.00,312.00 309.00,312.00 Z
           M 365.00,316.00
           C 365.00,316.00 431.00,323.72 431.00,323.72
             431.00,323.72 551.00,339.28 551.00,339.28
             551.00,339.28 586.00,343.91 586.00,343.91
             598.19,344.60 607.77,336.66 606.90,324.00
             605.53,303.84 582.23,302.92 567.00,299.58
             567.00,299.58 551.00,296.20 551.00,296.20
             551.00,296.20 428.00,271.60 428.00,271.60
             428.00,271.60 363.00,259.00 363.00,259.00
             364.70,269.82 375.18,287.77 371.10,304.00
             369.76,309.31 367.80,311.51 365.00,316.00 Z
           M 261.00,320.30
           C 235.07,325.37 232.69,358.90 251.00,368.32
             257.16,371.48 277.10,372.38 285.00,373.17
             285.00,373.17 335.00,377.09 335.00,377.09
             335.00,377.09 359.00,379.00 359.00,379.00
             370.48,379.13 383.37,379.99 392.99,372.47
             405.21,362.91 408.16,338.67 392.99,330.41
             387.52,327.43 381.03,327.44 375.00,326.83
             375.00,326.83 346.00,324.91 346.00,324.91
             346.00,324.91 335.00,324.00 335.00,324.00
             335.00,324.00 311.00,323.00 311.00,323.00
             311.00,323.00 297.00,322.00 297.00,322.00
             297.00,322.00 261.00,320.30 261.00,320.30 Z
           M 277.00,383.41
           C 262.20,386.46 253.83,400.53 257.02,415.00
             258.36,421.13 260.76,425.64 266.00,429.35
             273.00,434.31 283.70,434.66 292.00,435.04
             292.00,435.04 300.00,435.96 300.00,435.96
             300.00,435.96 311.00,435.96 311.00,435.96
             311.00,435.96 326.00,437.00 326.00,437.00
             334.02,437.01 353.38,437.96 360.00,435.44
             363.19,434.22 365.55,432.42 367.90,429.96
             376.67,420.77 377.23,398.15 365.96,390.60
             362.69,388.41 357.81,389.04 354.00,389.00
             354.00,389.00 330.00,387.09 330.00,387.09
             330.00,387.09 297.00,384.83 297.00,384.83
             297.00,384.83 277.00,383.41 277.00,383.41 Z" />
</svg>
