<?xml version="1.0" encoding="UTF-8" standalone="no"?>
<!-- Created with Inkscape (http://www.inkscape.org/) -->

<svg
   width="137.4702mm"
   height="90.230019mm"
   viewBox="0 0 137.4702 90.230019"
   version="1.1"
   id="svg1"
   xmlns:inkscape="http://www.inkscape.org/namespaces/inkscape"
   xmlns:sodipodi="http://sodipodi.sourceforge.net/DTD/sodipodi-0.dtd"
   xmlns="http://www.w3.org/2000/svg"
   xmlns:svg="http://www.w3.org/2000/svg">
  <sodipodi:namedview
     id="namedview1"
     pagecolor="#ffffff"
     bordercolor="#000000"
     borderopacity="0.25"
     inkscape:showpageshadow="2"
     inkscape:pageopacity="0.0"
     inkscape:pagecheckerboard="0"
     inkscape:deskcolor="#d1d1d1"
     inkscape:document-units="mm" />
  <defs
     id="defs1" />
  <g
     inkscape:label="Layer 1"
     inkscape:groupmode="layer"
     id="layer1"
     transform="translate(-24.07708,-42.862499)">
    <path
       id="path2"
       d="m 52.181115,43.864525 c -3.1288,1.6263 -5.30084,4.78719 -5.30084,8.36083 0,2.84692 1.4492,5.29872 3.52636,7.09436 -4.21674,0.0494 -8.43386,0.10583 -12.6492,0.21167 -2.31986,0.0564 -4.71945,0.0141 -6.78286,1.2453 -3.32388,1.98967 -4.33633,6.43114 -3.69498,10.02947 0.34184,1.91912 1.32715,3.85587 2.76259,5.284616 -2.32727,0.670276 -4.21746,2.183693 -5.19078,4.670776 -1.23825,3.164417 -1.03433,7.313084 0.92358,10.14236 2.27224,3.28789 5.83319,3.28789 9.44174,3.450167 1.86621,0.08114 3.73205,0.165807 5.59789,0.250473 -2.062,2.529413 -2.30081,6.445253 -1.62771,9.634363 0.94755,4.48733 4.74485,6.1348 8.99406,6.19477 4.20687,0.06 8.41586,0.0564 12.62308,0.0953 7.03969,0.067 14.08078,0.13053 21.12116,0.22578 -2.61972,1.66864 -3.97439,5.04472 -3.81423,8.19503 0.0995,1.96144 0.8174,3.88056 2.3876,5.12586 1.73286,1.37442 3.85199,1.17299 5.879039,1.70215 4.443253,1.16029 8.634597,3.31611 12.761753,5.28461 1.956483,0.9331 3.922523,1.89936 6.124923,2.01648 2.11137,0.11254 4.2224,-0.49424 6.25334,-1.00506 9.71233,-2.44193 19.6536,-5.13362 28.15278,-10.58757 4.60584,-2.95628 9.02975,-6.32178 12.9821,-10.11061 3.72345,-3.57364 7.01836,-7.83872 7.91681,-13.04572 0.37748,-2.18722 0.34909,-4.385026 0.25813,-6.593416 -0.11123,-3.263194 0.21068,-6.561667 0.36724,-9.821333 0.24889,-5.178777 0.42831,-10.364606 0.32083,-15.550446 -0.0877,-4.23333 0.0177,-8.79827 -2.00644,-12.64002 -1.55789,-2.95981 -4.19349,-5.21759 -7.1319,-6.74159 -7.39261,-3.83469 -15.76943,-3.51014 -23.84049,-3.60891 -12.20295,-0.14817 -24.40728,-0.22578 -36.610923,-0.30339 -10.746682,-0.067 -21.493352,-0.127 -32.240382,-0.17639 -2.61302,-0.0106 -5.09833,-0.28222 -7.50427,0.97014 z m 59.917545,67.680405 c 0.006,0 0.0127,0 0.0183,0 0,0 0.003,0 0.004,0 -0.21378,0.0564 -0.0691,0.0177 -0.0225,0 z M 59.948915,45.011045 c 10.04853,0.0459 20.0974,0.10231 30.145936,0.16581 11.777129,0.0741 23.553899,0.15169 35.330339,0.27869 6.99098,0.0776 14.35259,-0.39511 21.15264,1.52753 2.98429,0.84667 5.95313,2.13431 8.28162,4.22628 2.84179,2.55411 4.02659,5.83142 4.29326,9.57086 0.64781,9.09108 0.014,18.185693 -0.37454,27.269722 -0.0525,1.227667 -0.10914,2.45886 -0.0674,3.686527 0.22601,5.492746 -0.70252,10.152946 -4.21762,14.566196 -3.05485,3.83822 -7.04191,7.0485 -10.96325,9.95186 -3.89231,2.87866 -8.03095,5.66914 -12.52344,7.52475 -4.76001,1.96814 -9.74124,3.43993 -14.69636,4.82635 -2.04682,0.57256 -4.1007,1.12219 -6.16479,1.62842 -2.13889,0.52423 -4.31165,1.05657 -6.49076,0.44415 -1.90606,-0.53552 -3.698531,-1.57127 -5.484283,-2.41476 -1.96215,-0.9264 -3.938059,-1.82387 -5.942886,-2.6536 -1.93675,-0.80045 -3.928189,-1.60126 -5.983816,-2.04223 -2.20522,-0.47272 -4.55332,-0.24694 -5.59541,-2.70933 -0.89746,-2.1202 -0.41558,-4.99181 0.87276,-6.85447 1.10172,-1.59456 2.6035,-2.11314 4.423485,-2.286 3.983223,-0.38453 8.078973,-0.17287 12.055819,0.18697 3.766981,0.33866 7.608361,2.00025 11.336521,1.00189 1.10773,-0.29634 2.24084,-0.71261 3.27695,-1.2065 0.42052,-0.20109 0.79869,-0.32103 0.94017,-0.83256 0.2032,-0.73378 -0.32634,-1.19592 -0.94404,-1.37936 -1.11725,-0.33161 -2.53084,-0.21519 -3.67913,-0.26458 -12.760329,-0.5327 -25.552035,-0.56445 -38.321195,-0.70909 -5.91749,-0.067 -11.83534,-0.127 -17.75317,-0.16933 -1.49614,-0.0106 -2.99262,-0.0176 -4.48911,-0.0282 -1.81999,-0.0106 -3.82727,-0.15522 -5.3086,-1.34055 -1.81221,-1.44992 -2.08843,-3.98287 -2.05599,-6.14892 0.0335,-2.26836 0.61806,-5.07294 2.90867,-6.092472 13.11486,-0.05292 26.22973,-0.102304 39.3446,-0.15522 1.8683,-0.0071 3.736599,-0.0141 5.604928,-0.02117 1.361704,-0.0035 1.364536,-2.120196 0,-2.116667 -13.183318,0.05292 -26.366968,0.102304 -39.550288,0.155221 -1.86864,0.0071 -3.73697,0.0141 -5.60527,0.02117 -1.90747,-0.08467 -3.8153,-0.17286 -5.72276,-0.257526 -2.72592,-0.123474 -6.57013,0.381 -8.94503,-1.153584 -2.6335,-1.703916 -3.18841,-5.376333 -2.62361,-8.244416 0.65511,-3.323167 3.01059,-5.083527 6.35529,-5.16114 17.28047,0.05292 34.56057,0.102306 51.84103,0.155223 2.475099,0.0071 4.95054,0.0141 7.425638,0.02117 1.362075,0.0035 1.364192,-2.113134 0,-2.116664 -17.280468,-0.0494 -34.560588,-0.10231 -51.841058,-0.15522 -2.38548,-0.007 -4.77131,-0.0141 -7.15679,-0.0212 -3.09388,-1.651 -4.24323,-5.42572 -3.64633,-8.73478 0.66924,-3.71122 3.2431,-5.13291 6.71478,-5.25638 5.93865,-0.20814 11.88755,-0.23284 17.8294,-0.29634 11.60462,-0.0494 23.20888,-0.1023 34.813503,-0.15522 1.624541,-0.007 3.249453,-0.0141 4.873995,-0.0212 1.361704,-0.007 1.364535,-2.12372 0,-2.11666 -11.604628,0.0529 -23.208908,0.1023 -34.813528,0.15522 -1.548,0.007 -3.09563,0.0141 -4.64362,0.0212 -0.11219,-0.0529 -0.23813,-0.11289 -0.28822,-0.14112 -0.49072,-0.26458 -0.9712,-0.55033 -1.42345,-0.87488 -1.24778,-0.90312 -2.34527,-2.08492 -2.94818,-3.5172 -1.5508,-3.67947 0.59656,-7.60942 4.03826,-9.20397 1.93463,-0.89253 4.32999,-0.53975 6.40432,-0.5327"
       style="fill:#231f20;fill-opacity:1;fill-rule:nonzero;stroke:none;stroke-width:0.0352777" />
  </g>
</svg>
