<?xml version="1.0" encoding="UTF-8" standalone="no"?>
<!-- Created with Inkscape (http://www.inkscape.org/) -->

<svg
   width="99.391655mm"
   height="87.052689mm"
   viewBox="0 0 99.391655 87.052689"
   version="1.1"
   id="svg1"
   inkscape:export-filename="rock.svg"
   inkscape:export-xdpi="96"
   inkscape:export-ydpi="96"
   xmlns:inkscape="http://www.inkscape.org/namespaces/inkscape"
   xmlns:sodipodi="http://sodipodi.sourceforge.net/DTD/sodipodi-0.dtd"
   xmlns="http://www.w3.org/2000/svg"
   xmlns:svg="http://www.w3.org/2000/svg">
  <sodipodi:namedview
     id="namedview1"
     pagecolor="#ffffff"
     bordercolor="#000000"
     borderopacity="0.25"
     inkscape:showpageshadow="2"
     inkscape:pageopacity="0.0"
     inkscape:pagecheckerboard="0"
     inkscape:deskcolor="#d1d1d1"
     inkscape:document-units="mm" />
  <defs
     id="defs1" />
  <g
     inkscape:label="Layer 1"
     inkscape:groupmode="layer"
     id="layer1"
     transform="translate(-55.033307,-105.03958)">
    <path
       id="path3"
       d="m 68.147503,105.45863 c -5.5291,1.63795 -6.43043,8.83744 -3.92959,13.37769 0.1679,0.30515 0.36123,0.60219 0.5743,0.88476 -3.43323,0.84455 -6.52356,3.15595 -7.02802,6.87529 -0.45085,3.32352 0.85302,6.66926 3.34396,8.60284 -3.47556,1.10948 -6.06705,3.98004 -6.07483,8.10648 -0.009,4.67113 3.13621,7.97384 7.3071,8.74642 -2.72769,3.25402 -2.77918,8.91434 -0.097,12.11968 2.73296,3.26496 7.20196,2.82434 11.03418,2.82434 9.27382,0 18.548,0 27.822167,0 2.33433,0 4.66866,0 7.00299,0 -0.18944,1.03328 -0.46637,2.07786 -1.01847,2.86667 -0.80786,1.15288 -2.37701,1.47849 -3.69076,1.6009 -6.721117,0.62583 -13.346987,-2.60632 -19.886427,-3.59868 -2.93723,-0.44521 -5.84342,-0.60431 -8.35062,1.23155 -2.3269,1.70356 -4.16628,4.56812 -4.40406,7.481 -0.20498,2.51072 0.9398,4.89232 3.18346,6.0953 2.64266,1.41675 5.81907,1.15428 8.63071,2.10678 3.07658,1.04211 6.00534,2.52766 8.85754,4.06824 2.14983,1.16134 4.37798,2.87902 6.84672,3.19546 2.495547,0.31961 4.888787,-1.0026 7.209357,-1.76177 2.91218,-0.9525 5.8353,-1.87043 8.72984,-2.87691 7.27605,-2.53047 14.53974,-5.45817 20.94001,-9.80616 5.60959,-3.81106 10.6831,-8.50477 14.91149,-13.80843 1.70434,-2.13748 3.09478,-4.21922 3.64395,-6.95466 0.62202,-3.09844 0.47057,-6.26251 0.33197,-9.398 -0.27535,-6.22794 0.76355,-12.40014 0.23537,-18.64854 -0.56335,-6.66503 -1.84602,-13.03407 -7.20813,-17.49036 -3.65206,-3.03495 -8.31755,-5.07013 -13.00452,-5.82084 -2.1426,-0.3429 -4.33603,-0.26564 -6.49926,-0.28292 -8.94327,-0.0709 -17.8876,-0.0759 -26.83122,-0.0896 -0.802927,-0.001 -1.605847,-7.9e-4 -2.408767,-0.002 -0.009,2.6e-4 -0.0177,-8e-4 -0.0265,0 -7.86976,-0.0109 -15.73918,-0.0177 -23.60858,-0.0194 -2.1209,-2.6e-4 -4.48488,-0.23354 -6.53838,0.37465 z m -2.79683,10.37625 c -0.6364,-2.78976 -0.41558,-6.56484 2.47155,-7.995 1.80763,-0.8957 4.06894,-0.63994 6.03638,-0.63923 7.65528,0.001 15.31056,0.006 22.96584,0.0159 0.35277,2.7e-4 0.70555,0.001 1.05833,0.002 1.9177,1.96003 3.473797,3.97968 3.417707,6.90139 -0.0473,2.4638 -1.407577,3.69217 -3.012717,5.25109 -7.6962,-0.0691 -15.39593,2.7e-4 -23.09248,2.7e-4 -2.55482,0 -5.10963,0 -7.66445,0 -0.1665,-0.12735 -0.56903,-0.38488 -0.6805,-0.49495 -0.82056,-0.80892 -1.24812,-1.94028 -1.49966,-3.0413 z m -2.86737,17.78036 c -2.22356,-1.536 -3.11362,-4.58929 -2.55413,-7.17586 0.69638,-3.22156 4.23616,-4.80977 7.27498,-4.95159 5.38022,0 10.76079,0 16.141,0 3.67206,0 7.34378,0 11.01584,0 3.21592,0 6.733817,-0.48542 9.074497,2.2532 1.66088,1.9431 1.77377,4.6295 1.33174,7.04991 -0.53164,2.91077 -2.66277,3.86821 -5.460287,3.92606 -0.0589,0.001 -1.10103,0 -1.57798,0 -8.20314,0 -16.40628,0 -24.60979,0 -2.60384,0 -5.20768,0 -7.81155,0 -0.0289,-0.0166 -0.60642,-0.11677 -0.8029,-0.17109 -0.71861,-0.19862 -1.40653,-0.50589 -2.02142,-0.93063 z m -5.33331,9.69045 c 0.0124,-4.54801 3.94724,-6.7631 8.11389,-6.47206 5.43314,0 10.86591,0 16.29868,0 3.83893,0 7.67786,0 11.51679,0 1.76036,0 7.080947,0.0783 7.326837,0.14181 3.52425,0.90841 5.09623,4.77097 4.31765,8.08426 -0.75636,3.21874 -3.23674,4.92125 -6.475237,5.00309 -0.0399,8e-4 -0.0741,0.009 -0.11183,0.0138 -0.10583,-0.006 -0.21131,-0.0127 -0.31926,-0.0138 -7.5752,-0.0938 -15.15675,0 -22.7323,0 -3.27377,0 -6.54756,0 -9.82133,0 -4.35398,0.40041 -8.12659,-2.11807 -8.11389,-6.7571 z m 12.41179,21.57377 c -2.97498,-0.0205 -5.80708,-1.00048 -6.76699,-4.0707 -0.94437,-3.01943 -0.22365,-7.05168 2.73474,-8.6293 5.88149,0 11.76301,0 17.64488,0 3.53307,0 7.06578,0 10.5992,0 2.69135,0 5.8854,-0.62971 7.560737,1.9872 1.2573,1.96356 1.41393,4.42172 0.78387,6.62799 -0.76271,2.66947 -2.779887,4.01249 -5.516027,4.08481 -0.0515,0.001 -0.0974,0.0109 -0.14499,0.018 -8.9655,0.0205 -17.93135,0.0427 -26.89542,-0.018 z M 139.43297,109.2076 c 4.95008,2.01718 9.58233,5.62928 11.24176,10.89413 2.13776,6.78286 1.85142,14.29561 1.39887,21.30284 -0.14704,2.27718 -0.222,4.51697 -0.11659,6.79697 0.13808,2.98909 0.26747,6.084 -0.50712,9.00395 -0.66174,2.49414 -2.31525,4.44641 -3.94642,6.38104 -1.92775,2.28671 -4.00981,4.44606 -6.21704,6.46395 -5.56517,5.08811 -11.89849,8.96726 -18.81575,11.93376 -5.82119,2.49696 -11.85651,4.38009 -17.86502,6.35847 -2.2666,0.74648 -4.680307,2.18546 -7.085547,1.35502 -2.25248,-0.77823 -4.38643,-2.36008 -6.49992,-3.45793 -2.54847,-1.32362 -5.16679,-2.57845 -7.89059,-3.50132 -2.64442,-0.89535 -5.8808,-0.57608 -8.29026,-1.98755 -2.80988,-1.6457 -2.18618,-5.16008 -0.67699,-7.5191 1.94839,-3.04589 4.62385,-3.82623 8.04827,-3.42477 6.31472,0.74048 12.25514,3.41877 18.633017,3.78848 2.26589,0.13124 4.91066,0.0275 6.82095,-1.3596 2.11526,-1.53635 2.46733,-4.54943 2.84163,-6.94196 0.61101,-3.90737 1.31092,-7.59531 3.50837,-10.97598 1.74273,-2.68146 3.94618,-5.06659 6.20643,-7.31732 1.12147,-1.11654 2.27047,-2.21297 3.47027,-3.2452 1.03434,-0.8897 -0.46814,-2.38125 -1.49648,-1.49684 -3.93771,3.38773 -7.85143,7.31979 -10.51525,11.80465 -1.99849,3.3648 -2.6155,7.03051 -3.23533,10.81688 -2.14665,2.6e-4 -4.29295,0.004 -6.4396,0.008 1.49083,-1.42769 2.37631,-3.48932 2.56011,-5.92843 0.21166,-2.8067 -0.80575,-5.78908 -2.86633,-7.48947 3.63009,-1.48872 5.85435,-5.15726 5.29061,-9.5063 -0.30656,-2.36361 -1.67992,-4.56248 -3.64066,-5.91256 0.8763,-0.39652 1.66123,-0.97508 2.27435,-1.81433 1.18745,-1.62596 1.39418,-3.69853 1.43828,-5.65291 0.0956,-4.23616 -2.38266,-7.72019 -6.18102,-8.83603 1.46473,-1.56704 2.4892,-3.12526 2.53718,-5.62857 0.0529,-2.76331 -1.06645,-4.93465 -2.68288,-6.8968 7.56074,0.0102 15.12182,0.0236 22.68256,0.0624 5.55978,0.0286 10.7508,-0.22296 16.01614,1.92228"
       style="fill:#231f20;fill-opacity:1;fill-rule:nonzero;stroke:none;stroke-width:0.0352777" />
  </g>
</svg>
