<?xml version="1.0" encoding="UTF-8" standalone="no"?>
<!-- Created with Inkscape (http://www.inkscape.org/) -->

<svg
   width="142.54489mm"
   height="77.649986mm"
   viewBox="0 0 142.54489 77.649986"
   version="1.1"
   id="svg1"
   inkscape:export-filename="scissors.svg"
   inkscape:export-xdpi="96"
   inkscape:export-ydpi="96"
   xmlns:inkscape="http://www.inkscape.org/namespaces/inkscape"
   xmlns:sodipodi="http://sodipodi.sourceforge.net/DTD/sodipodi-0.dtd"
   xmlns="http://www.w3.org/2000/svg"
   xmlns:svg="http://www.w3.org/2000/svg">
  <sodipodi:namedview
     id="namedview1"
     pagecolor="#ffffff"
     bordercolor="#000000"
     borderopacity="0.25"
     inkscape:showpageshadow="2"
     inkscape:pageopacity="0.0"
     inkscape:pagecheckerboard="0"
     inkscape:deskcolor="#d1d1d1"
     inkscape:document-units="mm" />
  <defs
     id="defs1" />
  <g
     inkscape:label="Layer 1"
     inkscape:groupmode="layer"
     id="layer1"
     transform="translate(-59.266667,-87.047916)">
    <path
       id="path1"
       d="m 122.95061,87.968382 c -4.05624,1.9879 -5.24969,6.78038 -4.18783,10.8846 0.28752,1.1109 0.73272,2.234498 1.39912,3.184518 -1.77059,0.19439 -3.48474,0.66393 -5.04155,1.65771 -3.98603,2.54529 -5.61163,9.28229 -2.59644,13.17307 -13.987283,-1.91981 -27.986913,-3.77084 -41.993253,-5.54214 -3.00249,-0.37959 -6.1475,-0.9973 -8.76264,1.02765 -4.03225,3.12208 -2.92312,10.0531 1.42275,12.33064 1.95157,1.0227 4.35892,1.31233 6.4957,1.75965 3.29459,0.68968 6.59271,1.36278 9.89118,2.03447 13.48176,2.74567 26.972673,5.44654 40.465363,8.14 -6.49252,1.6838 -12.98398,3.37008 -19.47261,5.0673 -10.680003,2.79364 -21.397393,5.49451 -32.011063,8.53404 -2.33292,0.66816 -4.82812,1.4545 -6.31084,3.51261 -1.43298,1.98896 -1.15005,4.27284 -0.63041,6.51651 1.23296,5.322 6.64139,4.71628 11.01054,3.94864 10.60062,-1.86231 21.16632,-3.93912 31.738013,-5.95771 5.92242,-1.13065 11.84415,-2.26554 17.76517,-3.40325 3.1623,-0.60748 6.62376,-0.91193 9.71233,-1.85702 2.57069,2.36573 5.86704,4.05659 8.76899,5.95489 1.657,1.08408 3.30094,2.18687 4.95018,3.28224 1.42663,0.94756 2.77848,1.29893 4.41078,1.70533 1.95368,0.48613 3.67348,0.4385 5.68572,0.16087 4.6796,-0.64594 9.37789,-1.61396 13.96058,-2.76155 4.72377,-1.18321 9.28963,-2.83986 13.7498,-4.78684 4.55482,-1.98826 8.64704,-4.27849 11.83403,-8.18373 3.51826,-4.3113 6.08514,-9.91447 6.34352,-15.53316 0.2989,-6.49817 0.3033,-13.03302 0.2107,-19.53613 -0.0356,-2.50014 0.0398,-5.10963 -0.3915,-7.58366 -0.74772,-4.28908 -3.52489,-8.529458 -6.82142,-11.296998 -3.21843,-2.70193 -7.58293,-3.81847 -11.62198,-4.62492 -2.98344,-0.59549 -5.96759,-0.92569 -9.00656,-0.94051 -7.12738,-0.0342 -14.25879,0.0938 -21.38384,-0.14393 -2.45674,-0.0822 -4.81224,-0.37218 -7.24182,-0.67239 -3.99168,-0.49284 -8.03981,-0.62583 -12.05689,-0.74119 -3.17253,-0.0907 -7.33883,-0.75283 -10.28382,0.69039 z m -2.46945,7.16632 c 0.14958,-2.06092 1.33033,-4.09504 3.13549,-5.12762 1.46368,-0.83714 3.17359,-0.7045 4.8006,-0.69744 1.67993,0.007 3.35986,0.042 5.03908,0.0914 3.72533,0.11007 7.46936,0.24836 11.17565,0.65829 0.39193,0.043 0.78175,0.091 1.17051,0.14005 0.036,0.0109 0.0681,0.0258 0.10725,0.0339 3.99662,0.83679 5.34176,3.6456 5.10117,7.49899 -0.15417,2.471918 -2.71957,5.299788 -5.36717,5.781678 -1.32573,-0.0871 -2.64336,-0.15205 -3.90595,-0.26176 -4.96253,-0.4318 -9.93034,-0.81139 -14.90133,-1.13171 -1.2506,-0.0804 -2.53683,-0.17533 -3.82129,-0.19685 -0.0416,-0.0349 -0.0822,-0.0706 -0.13159,-0.1016 -1.97132,-1.23649 -2.55517,-4.579758 -2.40242,-6.687258 z m -6.91021,19.264488 c -1.00788,-2.76013 -0.2794,-6.6047 2.05811,-8.48325 3.17959,-2.55552 7.73183,-1.905 11.51361,-1.65876 4.80307,0.31256 9.60331,0.6791 14.39862,1.09432 0.90276,0.0783 5.57177,0.51929 6.46889,0.61736 1.25483,0.13758 2.74814,0.14288 3.92641,0.65793 3.27308,1.43157 4.33176,5.79755 2.88678,8.79969 -1.19062,2.47332 -3.27413,4.24074 -6.07624,4.08587 -3.66466,-0.20249 -7.32896,-0.40781 -10.99291,-0.62089 -6.59165,-0.38347 -13.60276,-0.55986 -20.05682,-1.33667 -1.77977,-0.45932 -3.44312,-1.28517 -4.12645,-3.1556 z m -29.025483,12.93319 c -6.0572,-1.22802 -12.16696,-2.32728 -18.17935,-3.76414 -2.32692,-0.55598 -4.25944,-1.77342 -4.78931,-4.24498 -0.74647,-3.48121 1.29787,-6.44983 5.0038,-6.33201 2.35515,0.0752 4.74804,0.5514 7.08025,0.85232 9.02053,1.16275 18.03682,2.36149 27.052413,3.56305 5.49627,0.73237 21.77626,2.67582 23.31931,2.78906 -4.42348,2.93793 -1.72685,9.76595 -0.0596,14.17708 0.11994,0.3168 0.2413,0.63324 0.36124,0.95003 -13.26656,-2.64513 -26.530993,-5.3026 -39.788733,-7.99041 z m -3.12773,33.10783 c -3.56517,0.66675 -7.12893,1.38466 -10.7121,1.95016 -2.27859,0.35983 -5.99158,0.88794 -6.86576,-1.92617 -0.58773,-1.89124 -1.04598,-4.22451 0.39476,-5.83953 1.4418,-1.61678 3.85445,-2.0761 5.87375,-2.64266 1.98367,-0.55668 3.97263,-1.09466 5.96194,-1.63088 5.61482,-1.51272 11.23739,-2.99579 16.86172,-4.47393 10.102853,-2.65571 20.212043,-5.28885 30.324063,-7.90963 0.59514,-0.15417 1.19028,-0.30833 1.78506,-0.46214 0.0381,-0.0102 0.0727,-0.0254 0.10795,-0.0392 0.96097,2.52659 1.92864,5.05107 2.92488,7.56391 0.77435,1.95368 1.47179,4.09681 2.44581,6.01698 -0.30092,0.0699 -0.59972,0.14217 -0.88971,0.1979 -4.19488,0.80786 -8.38976,1.61431 -12.58464,2.41935 -11.87238,2.27789 -23.745113,4.55366 -35.627723,6.7758 z M 189.29449,93.765572 c 4.2182,1.67499 7.32014,5.24757 9.0763,9.385658 0.99096,2.33503 1.12476,4.58293 1.20414,7.07672 0.20105,6.3119 0.11589,12.64214 -0.0314,18.95439 -0.1071,4.58894 -0.62604,8.58838 -2.72549,12.7882 -1.72642,3.45369 -4.15382,6.58883 -7.26902,8.89846 -3.88705,2.88255 -8.7854,4.63938 -13.31239,6.24734 -3.85067,1.36807 -7.80027,2.38019 -11.79865,3.20957 -3.81247,0.79058 -7.84613,1.90606 -11.76302,1.91664 -1.49296,0.004 -3.62973,-0.49812 -4.89127,-1.14264 -3.25931,-1.66511 -6.28473,-4.13138 -9.36413,-6.11153 -1.53917,-0.98989 -3.17465,-1.88771 -4.57694,-3.0681 -0.30797,-0.25964 -0.55527,-0.52105 -0.82056,-0.72672 -1.06891,-1.73567 -1.73708,-3.80083 -2.4899,-5.67902 -1.24566,-3.10868 -2.44334,-6.2364 -3.63291,-9.36731 -0.81809,-2.1537 -1.65347,-4.30283 -2.44687,-6.46606 -0.66745,-1.81963 -1.1497,-3.92959 -0.61101,-5.848 0.51788,-1.84502 2.13184,-2.45286 3.85692,-2.76331 3.7712,-0.67803 7.00687,0.49989 9.15847,3.65161 2.01012,2.94534 3.81458,6.03708 5.60387,9.1193 1.33315,2.29659 2.62255,4.61575 3.90454,6.94091 1.64783,2.98979 4.16137,4.64608 7.45526,2.83351 5.6335,-3.10057 9.94374,-8.25606 15.39455,-11.62579 1.15658,-0.71509 0.0948,-2.54671 -1.06825,-1.82775 -5.15055,3.18382 -9.42128,7.7082 -14.478,11.05183 -1.4351,0.94897 -3.02718,1.71379 -4.4069,0.16368 -0.84949,-0.95426 -1.38359,-2.25954 -2.00131,-3.37396 -1.72861,-3.11856 -3.51155,-6.20854 -5.35481,-9.26042 -1.54129,-2.55164 -3.10762,-5.83565 -5.45712,-7.78369 2.78659,0.15029 5.57248,0.29528 8.35554,0.45085 1.40653,0.0787 2.8134,0.17463 4.22064,0.23425 2.48073,0.10548 4.57059,-1.04175 6.1602,-2.921 1.90959,-2.25813 2.98556,-5.27403 2.21086,-8.19962 -0.6851,-2.58621 -2.68358,-5.35798 -5.36716,-6.10376 -0.77964,-0.2166 -1.5868,-0.37888 -2.40877,-0.50588 1.89653,-1.48943 3.302,-3.69711 3.48192,-5.809898 0.24871,-2.91818 -0.37889,-5.50968 -1.99566,-7.35118 6.56413,0.29598 13.14837,0.20461 19.71724,0.1972 6.2975,-0.007 12.53712,0.45897 18.47109,2.81552"
       style="fill:#231f20;fill-opacity:1;fill-rule:nonzero;stroke:none;stroke-width:0.0352777" />
  </g>
</svg>
